<?xml version="1.0" encoding="UTF-8" standalone="no"?>
<svg width="20px" height="20px" viewBox="0 0 20 20" version="1.1" xmlns="http://www.w3.org/2000/svg" xmlns:xlink="http://www.w3.org/1999/xlink">
    <!-- Generator: Sketch 48 (47235) - http://www.bohemiancoding.com/sketch -->
    <title>edit</title>
    <desc>Created with Sketch.</desc>
    <defs></defs>
    <g id="Page-1" stroke="none" stroke-width="1" fill="none" fill-rule="evenodd">
        <g id="edit" fill="#22DA22" fill-rule="nonzero">
            <path d="M19.4226989,3.59890395 L16.3912198,0.567460224 C16.0253035,0.201508544 15.5387861,0 15.0212728,0 C14.5038067,0 14.0172893,0.201508544 13.651373,0.567448438 L0.96152033,13.2571126 C0.841072481,13.3775604 0.763429582,13.5342015 0.740542133,13.7029935 L0.0070830878,19.1064938 C-0.0256098998,19.3474838 0.0561225692,19.5898763 0.228096641,19.7618268 C0.37509723,19.9088273 0.573565115,19.9898998 0.778644667,19.9898998 C0.813435474,19.9898998 0.848450206,19.9875781 0.883429582,19.9828167 L6.28694166,19.249393 C6.45575722,19.2264702 6.61239835,19.1488745 6.7328462,19.0283913 L19.4226989,6.33876252 C19.788627,5.9728462 19.9901237,5.48631703 19.9901237,4.96885091 C19.9901237,4.45133765 19.7886152,3.96482027 19.4226989,3.59890395 Z M5.81730112,17.7414968 L1.6878845,18.3019918 L2.24840306,14.1726341 L11.2407778,5.18040071 L14.8096405,8.74927519 L5.81730112,17.7414968 Z M18.3214496,5.23752504 L15.9108898,7.6480495 L12.3419918,4.0791868 L14.7525398,1.66867413 C14.8494166,1.57182086 14.9624867,1.55734826 15.0212728,1.55734826 C15.0800589,1.55734826 15.1931291,1.57182086 15.2900177,1.66867413 L18.3214968,4.70011786 C18.4183382,4.79695934 18.4327873,4.91004125 18.4327873,4.96881556 C18.4327873,5.02758986 18.4183265,5.14067177 18.3214496,5.23752504 Z" id="Shape"></path>
        </g>
    </g>
</svg>