<?xml version="1.0" encoding="UTF-8"?>
<svg width="29px" height="33px" viewBox="0 0 29 33" version="1.1" xmlns="http://www.w3.org/2000/svg" xmlns:xlink="http://www.w3.org/1999/xlink" xmlns:sketch="http://www.bohemiancoding.com/sketch/ns">
    <!-- Generator: Sketch 3.3.3 (12081) - http://www.bohemiancoding.com/sketch -->
    <title>login</title>
    <desc>Created with Sketch.</desc>
    <defs></defs>
    <g id="Page-1" stroke="none" stroke-width="1" fill="none" fill-rule="evenodd" sketch:type="MSPage">
        <g id="login" sketch:type="MSLayerGroup" transform="translate(1.000000, 1.000000)">
            <g id="Page-1" sketch:type="MSShapeGroup">
                <g id="login-copy">
                    <g id="39632" stroke-width="1.5" stroke="#A5CD39">
                        <g id="Group">
                            <path d="M11.5723362,15.8958734 C15.96,15.8958734 19.5189956,12.3356332 19.5189956,7.95235808 C19.5189956,3.5608952 15.960655,0 11.5723362,0 C7.18152838,0 3.62751092,3.56155022 3.62751092,7.95235808 C3.62751092,12.3356332 7.18087336,15.8958734 11.5723362,15.8958734 L11.5723362,15.8958734 L11.5723362,15.8958734 Z" id="Shape"></path>
                            <path d="M19.9925764,17.4117467 C19.6293013,16.9494978 18.9666157,16.4421179 18.3258734,16.0945633 C16.664738,17.9560699 14.2570087,19.1349127 11.5723362,19.1349127 C8.88962882,19.1349127 6.48248908,17.9560699 4.82325328,16.0988865 C4.1969214,16.4546943 3.55172489,16.9620742 3.20037118,17.4230131 C2.06037118,18.9106332 0.300917031,21.7938428 0.0203056769,25.6791703 C-0.038580786,26.4991266 0.351681223,27.7512009 1.03689956,28.2291048 C2.33724891,29.1392576 5.1420524,30.3036245 10.9822926,30.3036245 C13.004214,30.3036245 14.7079258,30.1789738 16.1479258,29.9848253 C15.5666594,29.0045852 15.2265721,27.8645852 15.2265721,26.6444105 C15.225917,23.0809607 18.0765066,20.1771179 21.6161135,20.0768996 C21.196441,19.1780786 20.6677729,18.274214 19.9925764,17.4117467 L19.9925764,17.4117467 Z" id="Shape"></path>
                        </g>
                    </g>
                    <g id="Shape-+-Shape-+-eEZAwP_1_-Copy" transform="translate(17.000000, 21.000000)" fill="#00ADEE">
                        <path d="M4.8675963,10.6111499 C4.48974404,10.5289828 4.10144126,10.4789444 3.73582664,10.3594038 C1.53184396,9.6386252 0.158739908,7.55057003 0.326221004,5.20198872 C0.483678852,2.99369366 2.21917297,1.12187595 4.46748321,0.735321369 C7.18808931,0.267570857 9.80605451,2.17412021 10.1973099,4.90816834 C10.5987439,7.71335029 8.65936652,10.2312775 5.83091366,10.5782831 C5.79388987,10.5828285 5.75845892,10.5999612 5.72225099,10.6111888 C5.43736609,10.6111499 5.15252007,10.6111499 4.8675963,10.6111499 L4.8675963,10.6111499 L4.8675963,10.6111499 Z M5.28196729,9.78392308 C7.56201772,9.78310729 9.41596459,7.93024818 9.42140355,5.64697326 C9.42688138,3.35717149 7.56718477,1.49098697 5.28084065,1.49195825 C2.99597283,1.49285178 1.13402294,3.36093993 1.13821871,5.6481387 C1.1423368,7.92445957 3.0061903,9.78473894 5.28196729,9.78392308 L5.28196729,9.78392308 L5.28196729,9.78392308 Z" id="Shape" stroke="#00ADEE" stroke-width="0.5"></path>
                        <g id="eEZAwP_1_" transform="translate(2.268823, 2.802359)">
                            <path d="M3.39449313,2.63606915 L4.5583915,2.63606915 C4.91689659,2.63606915 5.27536284,2.63525331 5.63390678,2.63653535 C5.83196258,2.63723464 5.99256727,2.78097856 6.01172018,2.97040973 C6.03133928,3.16508561 5.89994957,3.34161868 5.70472979,3.37759351 C5.65678926,3.38645124 5.60647889,3.38423681 5.55721746,3.38431451 C4.86623657,3.38458645 4.17525568,3.3843922 3.4842748,3.38423681 L3.39445428,3.38423681 L3.39445428,3.46931766 C3.39457083,4.1603374 3.39484278,4.85131829 3.39449313,5.54229917 C3.39445428,5.59412468 3.39666871,5.64711568 3.38703399,5.69750375 C3.35004906,5.89008175 3.17821681,6.01824692 2.98532802,6.00185235 C2.79597455,5.98572972 2.64721902,5.82461999 2.64686937,5.62839012 C2.64562619,4.91398286 2.64624778,4.1996533 2.64617008,3.4852849 C2.64613123,3.45459363 2.64617008,3.42398006 2.64617008,3.38419796 L2.54966741,3.38419796 C1.83790193,3.38419796 1.1260976,3.38489725 0.414332123,3.38388716 C0.150154117,3.38345982 -0.0287099333,3.14954573 0.0435505213,2.90316089 C0.0915687586,2.73952592 0.236594714,2.63606915 0.42132507,2.6359526 C0.951273921,2.63556411 1.48118392,2.63587491 2.01113277,2.63591376 C2.2188233,2.6359526 2.42643613,2.6359526 2.64636432,2.6359526 L2.64636432,2.52763963 C2.64624778,1.82364408 2.64597583,1.1196874 2.64617008,0.415691863 C2.64620893,0.194403933 2.79492561,0.0282048872 3.0006348,0.0177154663 C3.21741616,0.00664329986 3.39344419,0.175328727 3.39406578,0.399336136 C3.39538667,0.885074023 3.39453198,1.3708896 3.39457083,1.85670518 C3.39449313,2.11334635 3.39449313,2.37006521 3.39449313,2.63606915 L3.39449313,2.63606915 L3.39449313,2.63606915 Z" id="Shape"></path>
                        </g>
                    </g>
                </g>
            </g>
        </g>
    </g>
</svg>