<?xml version="1.0" encoding="UTF-8" standalone="no"?>
<svg width="20px" height="21px" viewBox="0 0 20 21" version="1.1" xmlns="http://www.w3.org/2000/svg" xmlns:xlink="http://www.w3.org/1999/xlink">
    <!-- Generator: Sketch 48 (47235) - http://www.bohemiancoding.com/sketch -->
    <title>remove</title>
    <desc>Created with Sketch.</desc>
    <defs></defs>
    <g id="Page-1" stroke="none" stroke-width="1" fill="none" fill-rule="evenodd">
        <g id="remove" fill="#D0021B" fill-rule="nonzero">
            <path d="M12.5530612,15.9836735 C12.177551,15.9836735 11.8510204,15.655102 11.8510204,15.2816327 L11.8510204,6.52244898 C11.8510204,6.14693878 12.1795918,5.82040816 12.5530612,5.82040816 C12.9285714,5.82040816 13.255102,6.10204082 13.255102,6.52244898 L13.255102,15.3265306 C13.255102,15.655102 12.9734694,15.9836735 12.5530612,15.9836735 Z" id="Shape"></path>
            <path d="M7.86938776,15.9836735 C7.49387755,15.9836735 7.16734694,15.655102 7.16734694,15.2816327 L7.16734694,6.52244898 C7.16734694,6.14693878 7.49591837,5.82040816 7.86938776,5.82040816 C8.24285714,5.82040816 8.57142857,6.10204082 8.57142857,6.52244898 L8.57142857,15.3265306 C8.57142857,15.655102 8.24285714,15.9836735 7.86938776,15.9836735 Z" id="Shape"></path>
            <path d="M14.1918367,20.1510204 L6.22857143,20.1510204 C4.07346939,20.1510204 2.48163265,18.277551 2.48163265,16.1693878 L2.48163265,6.42857143 C2.48163265,6.05306122 2.81020408,5.72653061 3.18367347,5.72653061 C3.55918367,5.72653061 3.88571429,6.05510204 3.88571429,6.42857143 L3.88571429,16.1714286 C3.88571429,17.5306122 4.86938776,18.7469388 6.22857143,18.7469388 L14.1918367,18.7469388 C15.5040816,18.7469388 16.5346939,17.4816327 16.5346939,16.1714286 L16.5346939,6.42857143 C16.5346939,6.05306122 16.8632653,5.72653061 17.2367347,5.72653061 C17.6102041,5.72653061 17.9387755,6.05306122 17.9387755,6.42857143 L17.9387755,16.1714286 C17.9387755,18.277551 16.3,20.1510204 14.1918367,20.1510204 Z" id="Shape"></path>
            <path d="M14.7081633,4.08571429 C14.3326531,4.08571429 14.0061224,3.75714286 14.0061224,3.38367347 C14.0061224,1.41632653 13.444898,1.41632653 13.1632653,1.41632653 L7.12040816,1.41632653 C6.83877551,1.41632653 5.99591837,1.41632653 5.99591837,3.38367347 C5.99591837,3.75918367 5.66734694,4.08571429 5.29387755,4.08571429 C4.91836735,4.08571429 4.59183673,3.75714286 4.59183673,3.38367347 C4.59183673,2.54081633 4.92040816,0.012244898 7.12040816,0.012244898 L13.1632653,0.012244898 C14.6612245,0.012244898 15.4122449,1.13673469 15.4122449,3.38367347 C15.4102041,3.75918367 15.0816327,4.08571429 14.7081633,4.08571429 Z" id="Shape"></path>
            <path d="M19.2510204,4.22653061 L0.702040816,4.22653061 C0.328571429,4.22653061 0,3.89795918 0,3.5244898 C0,3.14897959 0.281632653,2.82244898 0.702040816,2.82244898 L19.2959184,2.82244898 C19.6714286,2.82244898 19.9979592,3.15102041 19.9979592,3.5244898 C20,3.89795918 19.6714286,4.22653061 19.2510204,4.22653061 Z" id="Shape"></path>
        </g>
    </g>
</svg>