<?xml version="1.0" encoding="UTF-8" standalone="no"?>
<svg width="100px" height="100px" viewBox="0 0 100 100" version="1.1" xmlns="http://www.w3.org/2000/svg" xmlns:xlink="http://www.w3.org/1999/xlink" xmlns:sketch="http://www.bohemiancoding.com/sketch/ns">
    <!-- Generator: Sketch 3.3.3 (12081) - http://www.bohemiancoding.com/sketch -->
    <title>female1</title>
    <desc>Created with Sketch.</desc>
    <defs>
        <circle id="path-1" cx="50" cy="50" r="50"></circle>
        <path id="path-3" d="M63,10.9300572 C63,14.9300575 67.7494085,16.1506528 70.1241127,16.7609506 C77.7248316,18.7143317 92.9262695,22.6210937 92.9262695,22.6210937 C96.0931991,23.7359074 98.6639114,26.1348877 100,29.1941899 L100,39 L0,39 L0,29.1941899 C1.33608862,26.1348877 3.90680088,23.7359074 7.07373047,22.6210937 C7.07373047,22.6210937 22.2815408,18.712694 29.8854459,16.7584941 C32.2569639,16.1490151 37,14.9658203 37,10.9300572 C37,6.894294 37,5.55111512e-16 37,5.55111512e-16 L63,1.11022302e-16 C63,1.11022302e-16 63,6.93005678 63,10.9300572 Z"></path>
        <path d="M0,0 L100,0 L100,42 L0,42 L0,0 L0,0 Z M50,30.9992622 C62.0556641,31.0332031 70.8110474,16.9375033 70.8110474,16.9375033 C70.8110474,16.9375033 60.9463087,1.0008433 50,1.0008433 C39.0536913,1.0008433 29.1889526,16.9375033 29.1889526,16.9375033 C29.1889526,16.9375033 37.9443359,30.9653213 50,30.9992622 L50,30.9992622 L50,30.9992622 Z" id="path-5"></path>
        <path id="path-7" d="M0.0384615385,34.2547051 C2.47969128,33.4013337 7.25889811,30.7195568 12.0096717,22.3222656 C18.7983351,10.322876 29.1601089,15.8254104 32.5299354,19.6890869 C32.9149217,20.1304932 33.4611535,19.9127197 33.4611535,19.9127197 C33.4611535,19.9127197 42.0263062,16.246582 45.4909292,23.7626953 C48.0357706,29.2834449 49.3554247,30.8494533 51.9615385,32.6014582 L51.9615385,24.6972656 C51.9696514,9.15185547 42.4769569,9.03186035 42.0751108,9.00061035 C41.6732647,8.96936035 41.3280827,9.03186035 41.1450336,8.39208984 C40.3250679,5.526248 30.950693,-4.06848145 15.3811223,1.98046875 C-0.188448392,8.02941895 0.0384615385,30.0053694 0.0384615385,30.0053694 L0.0384615385,34.2547051 L0.0384615385,34.2547051 Z"></path>
    </defs>
    <g id="Page-1" stroke="none" stroke-width="1" fill="none" fill-rule="evenodd" sketch:type="MSPage">
        <g id="Flatflow-Icons" sketch:type="MSArtboardGroup" transform="translate(-72.000000, -329.000000)">
            <g id="User-Pictures" sketch:type="MSLayerGroup" transform="translate(70.000000, 79.000000)">
                <g id="female1" transform="translate(2.000000, 250.000000)">
                    <mask id="mask-2" sketch:name="circle" fill="white">
                        <use xlink:href="#path-1"></use>
                    </mask>
                    <use id="circle" fill="#F5EEE5" sketch:type="MSShapeGroup" xlink:href="#path-1"></use>
                    <g id="hair" mask="url(#mask-2)" sketch:type="MSShapeGroup">
                        <g transform="translate(24.000000, 37.000000)" id="Rectangle-71">
                            <rect fill="#D98C21" x="0" y="4" width="31" height="43"></rect>
                            <rect fill="#CC751F" x="21" y="0" width="31" height="47"></rect>
                        </g>
                    </g>
                    <g id="body" mask="url(#mask-2)">
                        <g transform="translate(0.000000, 61.000000)">
                            <mask id="mask-4" sketch:name="shoulders" fill="white">
                                <use xlink:href="#path-3"></use>
                            </mask>
                            <use id="shoulders" stroke="none" fill="#E6C19C" fill-rule="evenodd" sketch:type="MSShapeGroup" xlink:href="#path-3"></use>
                            <g id="dress" stroke="none" stroke-width="1" fill="none" fill-rule="evenodd" sketch:type="MSLayerGroup" mask="url(#mask-4)">
                                <g transform="translate(0.000000, -3.000000)">
                                    <mask id="mask-6" sketch:name="shirt" fill="white">
                                        <use xlink:href="#path-5"></use>
                                    </mask>
                                    <use id="shirt" stroke="none" fill="#6B363E" fill-rule="evenodd" sketch:type="MSShapeGroup" xlink:href="#path-5"></use>
                                    <path d="M72.3658218,19.7346191 C71.1031265,29.7724609 63.1036148,37 63.1036148,37 C63.1036148,37 54.8834,30.015625 52.9000015,29.390625 C65.6358414,21.753418 69.9644547,17.3642578 69.9644547,17.3642578 C69.9644547,17.3642578 73.6285172,9.69677734 72.3658218,19.7346191 Z M27.737793,19.7346191 C29.0004883,29.7724609 37,37 37,37 C37,37 45.2202148,30.015625 47.2036133,29.390625 C34.4677734,21.753418 30.1391602,17.3642578 30.1391602,17.3642578 C30.1391602,17.3642578 26.4750977,9.69677734 27.737793,19.7346191 Z" id="collar" stroke="none" fill="#FFFFFF" fill-rule="evenodd" sketch:type="MSShapeGroup" mask="url(#mask-6)"></path>
                                </g>
                            </g>
                            <path d="M50.1982054,-49.999869 C50.2564236,-49.9999592 50.3141022,-50 50.3712221,-50 C50.3769828,-50 50.3827346,-49.9997979 50.3884774,-49.9993945 C53.6863935,-49.9879263 58.586124,-49.7959801 61.8069035,-47.9681705 C65.1481929,-46.071971 69.1517152,-42.3530227 70.3065473,-35.8358702 C72.7363695,-22.1234678 68.2107067,-0.477774784 63.9925604,6.5670629 C59.956693,13.3074717 54.1734249,15.7849101 50.4863899,15.9864386 C50.4566738,15.9954544 50.426681,16 50.3964108,16 C50.3311282,16 50.2650514,15.999235 50.1982054,15.997692 C50.1313594,15.999235 50.0652826,16 50,16 C49.9697298,16 49.939737,15.9954544 49.9100209,15.9864386 C46.2229859,15.7849101 40.4397178,13.3074717 36.4038504,6.5670629 C32.1857041,-0.477774784 27.6600413,-22.1234678 30.0898635,-35.8358702 C31.2446956,-42.3530227 35.2482179,-46.071971 38.5895073,-47.9681705 C41.8102868,-49.7959801 46.7100173,-49.9879263 50.0079334,-49.9993945 C50.0136762,-49.9997979 50.019428,-50 50.0251887,-50 C50.0823086,-50 50.1399872,-49.9999592 50.1982054,-49.999869 L50.1982054,-49.999869 Z" id="head-shadow" stroke="none" fill="#D4B08C" fill-rule="evenodd" sketch:type="MSShapeGroup" mask="url(#mask-4)"></path>
                        </g>
                    </g>
                    <path d="M49.9919973,16 C69.0503922,16.045166 70.6978036,29.8023725 70.8093155,31.0574769 C71.8703353,42.9996186 67.8015434,59.1083093 63.9845576,64.7104492 C59.9486902,70.6338388 54.1654222,72.8109816 50.4783871,72.9880824 C50.3231255,73 50.2570486,72.9993277 50.1902027,72.9979717 C50.1233567,72.9993277 50.0572798,73 49.9919973,73 C46.2149831,72.8109816 40.4317151,70.6338388 36.3958477,64.7104492 C32.5668564,59.090689 28.4844726,42.8981821 29.5812538,30.9449171 C29.6927239,29.730061 30.9336024,15.954834 49.9919973,16 Z" id="head" fill="#F2CEA5" sketch:type="MSShapeGroup" mask="url(#mask-2)"></path>
                    <g id="face" mask="url(#mask-2)">
                        <g transform="translate(34.000000, 39.000000)">
                            <path d="M11.8185513,22.0000007 C11.5719863,21.9994142 11.4190529,22.3883891 11.5451786,22.6953041 C12.3999851,24.7753953 13.8857932,25.9491628 15.7698806,26.1400179 C17.7506776,26.3406696 19.8976709,24.9430715 20.943489,22.7418851 C21.0883557,22.4369769 20.9379527,22.0216923 20.6824379,22.0210846 L11.8185513,22.0000007 Z" id="mouth" fill="#A3705F" sketch:type="MSShapeGroup"></path>
                            <g id="eyes" stroke-width="1" fill="none" sketch:type="MSLayerGroup" transform="translate(5.000000, 4.000000)">
                                <circle id="Oval-3" fill="#262626" sketch:type="MSShapeGroup" cx="20" cy="2" r="2"></circle>
                                <circle id="Oval-3" fill="#262626" sketch:type="MSShapeGroup" cx="2" cy="2" r="2"></circle>
                            </g>
                            <g id="brows" stroke-width="1" fill="none" sketch:type="MSLayerGroup" transform="translate(1.000000, 0.000000)">
                                <path d="M11.7256385,1.20117191 C11.7256385,1.20117191 10.3254914,0.0311279297 6.8176793,0.00048828125 C4.35103701,-0.0210570723 1.96032724,0.708880581 0.457085935,2.62251152" id="Path-16" stroke="#CC9872" stroke-width="2" sketch:type="MSShapeGroup" transform="translate(6.091362, 1.311269) scale(-1, 1) translate(-6.091362, -1.311269) "></path>
                                <path d="M29.391846,1.20117191 C29.391846,1.20117191 27.991699,0.0311279297 24.4838869,0.00048828125 C20.9760747,-0.0301513672 17.6218262,1.45898459 16.755127,5.71093743 C15.8884277,9.96289028 17.0134277,13.4570313 18.821045,15.7885742" id="Path-16" stroke="#BB8660" stroke-width="2" sketch:type="MSShapeGroup"></path>
                            </g>
                        </g>
                    </g>
                    <g id="hair" mask="url(#mask-2)">
                        <g transform="translate(24.000000, 11.000000)">
                            <mask id="mask-8" sketch:name="Path 84" fill="white">
                                <use xlink:href="#path-7"></use>
                            </mask>
                            <use id="Path-84" stroke="none" fill="#E6A422" fill-rule="evenodd" sketch:type="MSShapeGroup" xlink:href="#path-7"></use>
                            <path d="M32.8367075,20.5900879 C32.8367075,20.5900879 35.8309044,13.0515137 41.8662015,8.5234375 C47.9014986,3.99536133 53.0367619,15.8786621 53.0367619,15.8786621 L53.2940956,35.4353027 L32.8367075,20.5900879 Z" id="Path-86" stroke="none" fill="#D98C21" fill-rule="evenodd" sketch:type="MSShapeGroup" mask="url(#mask-8)"></path>
                        </g>
                    </g>
                </g>
            </g>
        </g>
    </g>
</svg>